<?xml version="1.0" encoding="UTF-8"?>
<svg id="Calque_2" data-name="Calque 2" xmlns="http://www.w3.org/2000/svg" viewBox="0 0 447.28 467.14">
  <defs>
    <style>
      .cls-1 {
        fill: #f4983c;
      }
    </style>
  </defs>
  <g id="Calque_1-2" >
    <path class="cls-1" d="M447.12,217.17c-.18,5.74-.33,11.47-.48,17.21-.08,2.16-.18,4.49-1.45,6.27-1.83,2.51-5.33,2.99-8.45,3.3-9.03.81-18.09,1.6-27.15,2.44-2.03.18-4.34.28-5.79-1.14-2.74-2.64.03-7.54-1.62-10.96-1.5-3.12-5.74-3.5-9.19-3.43-25,.51-49.99,1.04-74.99,1.55-8.68,9.11-18.8,19.72-29.11,30.17,10.81,15.4,21.6,30.83,32.38,46.24,1.65,2.33,4.03,4.95,6.78,4.19,2.23-.63,3.2-3.15,4.19-5.23,4.11-8.73,14.06-14.34,23.68-13.32,9.62,1.01,18.17,8.58,20.38,17.97,1.62,7,0,14.31.05,21.52.05,6.45,1.22,13.7-2.89,18.68-3.07,3.71-8.22,4.87-12.97,5.84-13.83,2.74-27.69,5.48-41.54,8.25-13.07,2.59-28.98,4.26-37.48-5.99-7.54-9.11-3.22-25.2,7.87-29.31,3.02-1.12,7-2.21,7.31-5.41.15-1.78-1.02-3.35-2.11-4.75-9.52-12-19.06-24.03-28.6-36.04-8.1,7.66-15.58,14.34-21.77,19.11-4.36,3.35-9.57,5.05-15.2,5.71-10.79,33.17-21.6,66.31-32.41,99.48,10.38,3.76,21.62,5.1,31.57,9.9,9.95,4.77,18.8,14.59,17.56,25.56-.58,5.18-3.4,9.95-7.18,13.5-8.3,7.82-20.76,9.87-32.03,8.07-11.27-1.8-21.67-6.95-31.87-12.05-4.97-2.46-9.97-4.95-14.95-7.44-9.49-4.75-19.44-9.87-25.2-18.8-5.79-8.91-5.28-22.79,3.81-28.27,9.29-5.58,24.08-1.12,29.89-10.25,1.42-2.21,1.95-4.87,2.46-7.46,5.2-26.32,11.67-52.4,19.36-78.11-6.57-2.16-12.61-5.48-17.71-10.53-5.23-5.13-8.96-11.6-11.8-18.32-7.03-16.7-8.07-35.35-4.14-52.96-34.74-8.55-70.02-15.38-105.52-20.38-1.67-.23-3.4-.46-5-.13-6.57,1.32-4.72,9.52-9.29,13.32-2.31,1.93-6.07,2.44-9.59,2.18-12.94-.96-23.25-11.09-25.91-21.19s.48-20.12,3.58-29.77c1.67-5.1,3.32-10.23,4.97-15.35.53-1.6,1.12-3.3,2.74-4.31,2.23-1.37,5.53-.99,8.48-.53,10.76,1.65,22.31,3.6,30.4,9.77,8.1,6.19,9.95,18.07.81,22.03,36.26,10.28,73.09,19.03,110.27,26.24,2.61-5.96,5.86-11.67,9.64-16.95,7.06-9.87,16.06-18.32,26.7-24.36,7.41-4.24,15.38-7.33,23.58-9.8-1.42-34.46-4.59-68.82-9.44-102.96-6.98,8.35-21.72,4.54-27.86-4.47-6.12-9.01-6.14-20.71-5.94-31.59.05-2.97.28-6.29,2.51-8.25,1.62-1.45,3.91-1.75,6.07-2,6.88-.79,13.75-1.57,20.63-2.36,12.92-1.47,26.37-2.89,38.65,1.4,12.28,4.31,22.97,16.14,21.42,29.06-.41,3.53-1.88,7.13-4.82,9.11-5.81,3.86-15.89.71-18.96,6.95-.76,1.52-.84,3.25-.89,4.95-1.09,31.54-.36,63.14,2.21,94.61,16.37-2.97,33.8-3.76,48.62,2.08,2.82,1.09,5.53,2.44,8.12,4.04,23.02-18.83,46.06-37.66,69.08-56.49-14.47,2.61-27.18-16.9-18.91-29.06,2.99-4.47,7.79-7.41,12.79-9.39,25.2-9.95,57.3,6.9,63.44,33.27,1.29,5.56,1.45,11.8-1.78,16.5-4.54,6.6-13.63,7.64-21.32,9.92-21.52,6.34-36.26,25.38-52.51,40.86-8.88,8.48-18.55,16.09-28.5,23.35,2.92,7.59,4.85,15.73,6.27,23.85,26.11.28,52.23-.71,78.26-2.94-5.91-8.48-11.7-19.13-7.64-28.65,3.86-9.06,15.96-12.61,25.15-9.06,9.19,3.55,15.38,12.56,18.09,22.03,2.72,9.47,2.46,19.49,2.18,29.34Z"/>
  </g>
</svg>
